<svg id="Capa_1" enable-background="new 0 0 511.999 511.999" height="512" viewBox="0 0 511.999 511.999" width="512" xmlns="http://www.w3.org/2000/svg"><g><g><path d="m501.827 384.169-493.228-132.32 25.054-93.615c.489-1.827 1.307-3.549 2.414-5.081l40.351-55.829c6.165-8.531 16.256-13.306 26.739-12.656 9.694.601 18.528 5.772 23.812 13.939l18.695 28.897c12.846 19.857 41.004 22.057 56.791 4.437 19.896-22.204 54.96-21.007 73.268 2.502l3.24 4.16c34.809 44.697 76.496 83.55 123.496 115.102l67.478 45.299c27.719 18.61 40.539 52.847 31.89 85.165z" fill="#0067c5"/><g fill="#0055a3"><path d="m182.855 143.185c-13.779 2.761-28.773-2.667-37.191-15.68l-18.695-28.897c-5.284-8.167-14.117-13.338-23.812-13.939-5.981-.371-11.831 1.03-16.9 3.881 35.194 35.534 40.882 80.13 96.598 54.635z"/><path d="m469.938 299.006-67.478-45.299c-47-31.552-88.687-70.406-123.496-115.102l-3.24-4.16c-12.945-16.622-34.262-22.074-52.675-16.003 8.628 2.841 16.582 8.179 22.675 16.003l3.24 4.16c34.809 44.696 76.496 83.55 123.496 115.102l67.478 45.299c25.55 17.152 38.426 47.583 33.513 77.55l28.376 7.613c8.649-32.318-4.171-66.555-31.889-85.163z"/></g><path d="m8.599 251.849-.018.066c-4.512 16.859 5.46 34.182 22.274 38.693l18.371 4.928-5.661 21.153c-1.395 5.212 1.695 10.57 6.901 11.967l.002.001c3.57.958 7.374-.187 9.825-2.958l19.443-21.979 30.509 8.185-5.661 21.153c-1.395 5.212 1.695 10.57 6.901 11.967 3.571.958 7.377-.187 9.828-2.959l19.441-21.977 152.545 40.923-5.661 21.153c-1.395 5.212 1.695 10.57 6.901 11.967 3.571.958 7.377-.187 9.828-2.959l19.441-21.977 30.509 8.185-5.661 21.153c-1.395 5.212 1.695 10.57 6.901 11.967l.002.001c3.57.958 7.374-.187 9.825-2.958l19.443-21.979 30.509 8.185-5.661 21.153c-1.395 5.212 1.695 10.57 6.901 11.967l.002.001c3.57.958 7.374-.187 9.825-2.958l19.443-21.979 17.288 4.638c16.85 4.52 34.174-5.512 38.696-22.407z" fill="#efedef"/><g fill="#e5e1e5"><path d="m23.382 281.562-9.624-2.582c2.24 3.015 5.019 5.644 8.25 7.718z"/><path d="m473.512 376.572c-6.675 12.932-21.625 19.945-36.225 16.029l-9.951-2.669c-4.496-1.206-9.287.235-12.372 3.722l.369.099-5.707 21.324c-1.388 5.186 1.738 10.494 6.946 11.796l.002.001c3.627.907 7.457-.281 9.935-3.082l19.333-21.854 17.289 4.638c16.85 4.52 34.174-5.512 38.696-22.407z"/></g><g><path d="m13.841 279.091c1.315 1.755 2.812 3.379 4.478 4.835l.907-3.391z" fill="#e5e1e5"/></g><g fill="#fed402"><path d="m219.002 119.982c-6.095 2.648-11.761 6.62-16.546 11.96-5.442 6.073-12.353 9.79-19.6 11.243l105.805 183.797 58.544 15.706z"/><path d="m137.338 230.462c-20.645-35.878-54.669-62.044-94.585-72.753l-8.1-2.173c-.415.865-.751 1.767-1 2.698l-25.054 93.615 166.813 44.751z"/></g></g><path d="m474.118 292.779c-54.248-36.418-104.675-65.81-147.664-111.516-.127-.135-.255-.271-.391-.395-16.545-15.162-30.557-33.228-44.422-51.032-10.092-12.958-25.284-20.714-41.682-21.28-16.402-.566-32.142 6.161-43.09 18.381-12.322 13.754-35.116 11.858-44.908-3.506l-18.695-28.896c-14.338-22.484-47.766-22.92-62.926-1.604-3.615 5.083-43.424 57.735-43.933 63.364l-25.053 93.615c-.003.011-.004.022-.007.034-.003.011-.007.021-.01.032-5.573 20.825 6.797 42.301 27.575 47.875l11.132 2.987-3.724 13.913c-2.46 9.196 3.014 18.684 12.202 21.149.028.008.057.015.085.022 6.335 1.669 12.958-.341 17.303-5.254l16.366-18.501 18.785 5.04-3.724 13.913c-2.461 9.197 3.014 18.684 12.203 21.149 6.363 1.708 13.025-.299 17.389-5.233l16.365-18.5 140.82 37.778-3.724 13.914c-2.46 9.196 3.014 18.683 12.203 21.149 6.364 1.707 13.025-.298 17.389-5.233l16.365-18.499 18.785 5.04-3.724 13.912c-2.462 9.197 3.012 18.685 12.202 21.15.009.002.018.004.026.007 6.354 1.697 13.003-.312 17.361-5.239l16.366-18.501 18.785 5.04-3.724 13.914c-2.46 9.196 3.014 18.684 12.202 21.149.024.007.05.013.074.02 6.25 1.625 12.947-.306 17.313-5.251l16.366-18.501 12.805 3.435c10.087 2.706 20.627 1.312 29.672-3.926 9.04-5.234 15.508-13.682 18.212-23.786 9.484-35.424-4.563-72.929-34.95-93.329zm-433.221-132.604c.255-.948.675-1.833 1.249-2.628l40.352-55.829c4.685-6.481 12.238-10.057 20.196-9.563 7.285.452 14.006 4.387 17.979 10.527l18.695 28.897c7.4 11.44 19.427 18.612 32.995 19.675 2.184.171 4.351.162 6.492.013l94.285 163.786-55.383-14.858-37.397-10.032-36.521-63.442c-18.006-31.291-46.298-56.04-79.664-69.689-3.834-1.566-8.214.27-9.781 4.102-1.568 3.834.268 8.213 4.102 9.782 30.299 12.394 55.99 34.87 72.343 63.288l29.052 50.468-142.109-38.124zm442.447 236.737c-5.57 3.226-12.059 4.086-18.27 2.418l-17.289-4.638c-2.748-.736-5.676.144-7.561 2.275l-19.442 21.979c-.569.643-1.438.902-2.264.683-.011-.003-.022-.006-.033-.009-1.188-.336-1.89-1.575-1.568-2.776l5.661-21.154c1.07-4-1.303-8.11-5.302-9.183l-30.509-8.185c-2.743-.738-5.676.144-7.561 2.274l-19.442 21.978c-.57.644-1.435.905-2.265.684-.001 0-.003-.001-.005-.001-1.204-.325-1.92-1.572-1.596-2.783l5.661-21.153c1.07-4-1.303-8.11-5.302-9.183l-30.509-8.185c-2.745-.735-5.676.143-7.561 2.275l-19.442 21.977c-.569.644-1.437.906-2.267.684-1.206-.324-1.924-1.573-1.6-2.784l5.661-21.154c1.07-4-1.303-8.11-5.302-9.183l-152.544-40.923c-2.748-.738-5.676.143-7.561 2.274l-19.441 21.977c-.57.644-1.435.906-2.268.684-1.206-.324-1.924-1.573-1.6-2.784l5.662-21.153c1.07-4-1.303-8.11-5.302-9.183l-30.51-8.185c-2.748-.738-5.676.144-7.561 2.274l-19.437 21.981c-.569.643-1.438.902-2.264.683l-.032-.009c-1.188-.336-1.891-1.575-1.569-2.776l5.661-21.153c1.07-4-1.303-8.11-5.302-9.183l-18.371-4.929c-10.297-2.762-17.237-11.875-17.764-22.022l271.711 72.893c49.753 12.979 154.577 41.687 204.763 54.932-2.045 3.158-4.819 5.809-8.164 7.746zm12.795-22.034-202.531-54.333-99.666-173.135c5.271-2.443 10.069-5.966 14.099-10.463 2.409-2.689 5.134-5.003 8.086-6.925l106.337 184.721c1.388 2.411 3.911 3.76 6.507 3.76 1.27 0 2.556-.323 3.735-1.001 3.59-2.066 4.824-6.652 2.758-10.242l-105.317-182.95c3.026-.604 6.141-.872 9.296-.764 11.943.412 23.011 6.063 30.364 15.506l3.24 4.16c11.274 14.476 23.244 28.323 35.858 41.517l-9.395 5.436c-3.586 2.075-4.811 6.663-2.735 10.248 1.39 2.403 3.908 3.745 6.498 3.745 1.274 0 2.567-.326 3.749-1.01l12.763-7.385c4.586 4.529 9.25 8.976 13.994 13.337l-11.531 6.677c-3.585 2.075-4.809 6.664-2.732 10.249 1.391 2.401 3.908 3.743 6.497 3.743 1.275 0 2.568-.326 3.751-1.011l15.786-9.14c4.975 4.311 10.036 8.526 15.17 12.656l-10.092 5.845c-3.584 2.076-4.808 6.665-2.731 10.249 1.391 2.401 3.908 3.743 6.497 3.743 1.275 0 2.568-.326 3.752-1.011l15.32-8.873c5.392 4.078 10.859 8.065 16.412 11.945l-9.68 5.605c-3.585 2.076-4.809 6.664-2.732 10.249 1.391 2.401 3.908 3.743 6.497 3.743 1.275 0 2.568-.326 3.751-1.011l15.93-9.223 17.149 11.513-9.139 5.292c-3.584 2.076-4.808 6.664-2.731 10.249 1.391 2.401 3.908 3.743 6.497 3.743 1.275 0 2.568-.326 3.752-1.011l15.484-8.967 31.103 20.88c22.967 15.418 34.616 42.696 30.38 69.644z"/></g></svg>