<?xml version="1.0" encoding="iso-8859-1"?>
<!-- Generator: Adobe Illustrator 19.0.0, SVG Export Plug-In . SVG Version: 6.00 Build 0)  -->
<svg version="1.1" id="Layer_1" xmlns="http://www.w3.org/2000/svg" xmlns:xlink="http://www.w3.org/1999/xlink" x="0px" y="0px"
	 viewBox="0 0 512 512" style="enable-background:new 0 0 512 512;" xml:space="preserve">
<rect x="239.845" y="278.541" style="fill:#FF4F18;" width="32.301" height="66.001"/>
<g>
	<rect x="255.995" y="278.541" style="fill:#FF3100;" width="16.15" height="66.001"/>
	<path style="fill:#FF3100;" d="M344.676,237.651V205.35c8.554,0,16.772-1.705,24.424-5.069
		c16.872-7.416,29.666-22.962,34.226-41.583l19.821-80.95h-64.744V45.447h105.908l-29.612,120.932
		c-6.932,28.312-26.595,52.04-52.6,63.471C370.324,235.026,357.733,237.651,344.676,237.651z"/>
</g>
<path style="fill:#FF4F18;" d="M167.325,237.651c-13.057,0-25.647-2.625-37.422-7.798c-26.005-11.432-45.669-35.161-52.601-63.472
	L47.689,45.447h105.908v32.301H88.855l19.821,80.95c4.56,18.621,17.354,34.167,34.227,41.584c7.65,3.363,15.867,5.068,24.423,5.068
	V237.651z"/>
<g>
	<path style="fill:#FFA91E;" d="M365.554,0v185.137c0,60.413-49.14,109.554-109.554,109.554s-109.554-49.14-109.554-109.554V0
		H365.554z"/>
	<path style="fill:#FFA91E;" d="M341.415,419.297v42.099H170.586v-42.099c0-18.745,12.705-34.573,29.964-39.332v-14.342
		c0-20.533,16.7-37.232,37.232-37.232h36.435c20.533,0,37.232,16.7,37.232,37.232v14.342
		C328.71,384.724,341.415,400.551,341.415,419.297z"/>
</g>
<g>
	<path style="fill:#FF8900;" d="M341.415,419.297v42.099h-85.414V328.391h18.218c20.533,0,37.232,16.7,37.232,37.232v14.342
		C328.71,384.724,341.415,400.551,341.415,419.297z"/>
	<path style="fill:#FF8900;" d="M365.554,0v185.137c0,60.413-49.14,109.554-109.554,109.554V0H365.554z"/>
</g>
<rect x="128.429" style="fill:#FF4F18;" width="255.133" height="32.301"/>
<rect x="255.995" style="fill:#FF3100;" width="127.567" height="32.301"/>
<rect x="120.612" y="429.095" style="fill:#00C379;" width="270.788" height="82.905"/>
<rect x="255.995" y="429.095" style="fill:#00A653;" width="135.394" height="82.905"/>
<g>
</g>
<g>
</g>
<g>
</g>
<g>
</g>
<g>
</g>
<g>
</g>
<g>
</g>
<g>
</g>
<g>
</g>
<g>
</g>
<g>
</g>
<g>
</g>
<g>
</g>
<g>
</g>
<g>
</g>
</svg>
